<svg width="32" height="32" viewBox="0 0 32 32" fill="none" xmlns="http://www.w3.org/2000/svg">
<path d="M32 16C32 24.8366 24.8366 32 16 32C7.16344 32 0 24.8366 0 16C0 7.16344 7.16344 0 16 0C24.8366 0 32 7.16344 32 16Z" fill="black"/>
<path d="M7.74315 10.9542C7.93026 11.2973 8.14336 11.7235 8.38245 12.2328C8.63193 12.7318 8.88661 13.2776 9.14649 13.8701C9.41677 14.4522 9.68184 15.0499 9.94172 15.6632C10.2016 16.2766 10.4459 16.8535 10.6746 17.394C10.9033 16.8535 11.1476 16.2766 11.4074 15.6632C11.6673 15.0499 11.9272 14.4522 12.1871 13.8701C12.4573 13.2776 12.712 12.7318 12.9511 12.2328C13.2006 11.7235 13.4189 11.2973 13.606 10.9542H15.8202C15.9241 11.6715 16.0177 12.4771 16.1008 13.3711C16.1944 14.2547 16.2724 15.1799 16.3347 16.1466C16.4075 17.103 16.4699 18.0645 16.5219 19.0313C16.5842 19.998 16.6362 20.9076 16.6778 21.76H14.3077C14.2765 20.7101 14.2349 19.5666 14.1829 18.3296C14.131 17.0926 14.053 15.8452 13.9491 14.5873C13.7619 15.0239 13.554 15.5073 13.3253 16.0375C13.0967 16.5676 12.868 17.0978 12.6393 17.6279C12.421 18.1581 12.2079 18.6674 12 19.156C11.7921 19.6342 11.6153 20.0448 11.4698 20.3878H9.7702C9.62467 20.0448 9.44795 19.6342 9.24005 19.156C9.03215 18.6674 8.81385 18.1581 8.58515 17.6279C8.36686 17.0978 8.14336 16.5676 7.91467 16.0375C7.68597 15.5073 7.47807 15.0239 7.29096 14.5873C7.18701 15.8452 7.10904 17.0926 7.05707 18.3296C7.00509 19.5666 6.96351 20.7101 6.93233 21.76H4.56223C4.60381 20.9076 4.65059 19.998 4.70257 19.0313C4.76494 18.0645 4.82731 17.103 4.88968 16.1466C4.96244 15.1799 5.04041 14.2547 5.12357 13.3711C5.21713 12.4771 5.31588 11.6715 5.41983 10.9542H7.74315Z" fill="white"/>
<path d="M25.2454 21.76C25.0271 21.4066 24.7672 21.0271 24.4657 20.6217C24.1747 20.2059 23.8524 19.7953 23.499 19.3899C23.1559 18.9741 22.7973 18.5791 22.4231 18.2049C22.0489 17.8202 21.6746 17.4824 21.3004 17.1913V21.76H18.8679V10.9542H21.3004V15.0395C21.9345 14.3742 22.5686 13.683 23.2027 12.9657C23.8472 12.238 24.4449 11.5676 24.9959 10.9542H27.8805C27.1425 11.8274 26.3992 12.6694 25.6508 13.4803C24.9127 14.2911 24.1331 15.1071 23.3119 15.9283C24.1747 16.6456 25.0063 17.498 25.8067 18.4855C26.6175 19.4731 27.392 20.5646 28.13 21.76H25.2454Z" fill="#2B7FFF"/>
</svg>
