<svg width="60" height="60" viewBox="0 0 60 60" fill="none" xmlns="http://www.w3.org/2000/svg">
<path d="M60 30C60 46.5685 46.5685 60 30 60C13.4315 60 0 46.5685 0 30C0 13.4315 13.4315 0 30 0C46.5685 0 60 13.4315 60 30Z" fill="black"/>
<path d="M20.7268 37.2038C20.5546 36.7907 20.3223 36.2657 20.0296 35.6288C19.7542 34.9919 19.453 34.3034 19.1259 33.5632C18.7989 32.823 18.446 32.0656 18.0673 31.291C17.7058 30.4992 17.3616 29.759 17.0345 29.0705C16.7074 28.3647 16.3976 27.7364 16.105 27.1856C15.8296 26.6348 15.6058 26.2131 15.4337 25.9204C15.2443 27.9516 15.0894 30.1549 14.9689 32.5304C14.8484 34.8886 14.7451 37.2727 14.659 39.6825H12.2061C12.275 38.1333 12.3525 36.5755 12.4385 35.0091C12.5246 33.4255 12.6193 31.8763 12.7225 30.3615C12.843 28.8295 12.9635 27.3405 13.084 25.8946C13.2217 24.4487 13.368 23.0802 13.523 21.7892H15.7177C16.1824 22.5466 16.6816 23.4417 17.2152 24.4745C17.7489 25.5073 18.2825 26.5917 18.8161 27.7278C19.3497 28.8467 19.8661 29.9742 20.3653 31.1103C20.8645 32.2291 21.3206 33.2533 21.7338 34.1829C22.1469 33.2533 22.603 32.2291 23.1022 31.1103C23.6014 29.9742 24.1178 28.8467 24.6514 27.7278C25.185 26.5917 25.7187 25.5073 26.2523 24.4745C26.7859 23.4417 27.2851 22.5466 27.7498 21.7892H29.9446C30.5298 27.5557 30.9688 33.5201 31.2614 39.6825H28.8085C28.7224 37.2727 28.6191 34.8886 28.4986 32.5304C28.3781 30.1549 28.2232 27.9516 28.0339 25.9204C27.8617 26.2131 27.6293 26.6348 27.3367 27.1856C27.0613 27.7364 26.7601 28.3647 26.433 29.0705C26.106 29.759 25.7531 30.4992 25.3744 31.291C25.0129 32.0656 24.6686 32.823 24.3416 33.5632C24.0145 34.3034 23.7047 34.9919 23.4121 35.6288C23.1367 36.2657 22.9129 36.7907 22.7407 37.2038H20.7268Z" fill="white"/>
<path d="M48.4342 21.7892C47.9006 22.3745 47.2981 23.0286 46.6268 23.7515C45.9554 24.4573 45.2497 25.1889 44.5095 25.9462C43.7866 26.6864 43.0636 27.418 42.3406 28.141C41.6177 28.8639 40.9377 29.5352 40.3008 30.1549C41.041 30.6713 41.8242 31.3082 42.6505 32.0656C43.4767 32.823 44.2857 33.632 45.0776 34.4927C45.8694 35.3534 46.6096 36.2313 47.2981 37.1263C48.0038 38.0214 48.5891 38.8735 49.0539 39.6825H46.1104C45.594 38.8735 45.0001 38.0645 44.3288 37.2555C43.6575 36.4292 42.9431 35.646 42.1857 34.9058C41.4455 34.1484 40.6881 33.4513 39.9135 32.8144C39.1561 32.1775 38.416 31.6353 37.693 31.1877V39.6825H35.1885V21.7892H37.693V29.6902C38.2955 29.1221 38.9582 28.4852 39.6812 27.7795C40.4041 27.0565 41.1185 26.3335 41.8242 25.6106C42.53 24.8876 43.1927 24.1991 43.8124 23.545C44.4493 22.8737 44.9829 22.2884 45.4132 21.7892H48.4342Z" fill="#077FF7"/>
</svg>
